<?xml version="1.0" encoding="utf-8"?>
<!-- Generator: Adobe Illustrator 15.0.0, SVG Export Plug-In . SVG Version: 6.00 Build 0)  -->
<!DOCTYPE svg PUBLIC "-//W3C//DTD SVG 1.1//EN" "http://www.w3.org/Graphics/SVG/1.1/DTD/svg11.dtd">
<svg version="1.1" id="Layer_1" xmlns="http://www.w3.org/2000/svg" xmlns:xlink="http://www.w3.org/1999/xlink" x="0px" y="0px"
	 width="307.635px" height="256.254px" viewBox="276 -184 307.635 256.254" enable-background="new 276 -184 307.635 256.254"
	 xml:space="preserve">
<path fill="#333333" d="M564.448-184H295.837C285.105-184,276-175.545,276-164.813V-0.915c0,10.731,9.105,19.837,19.837,19.837
	h268.611c10.731,0,19.187-9.105,19.187-19.837v-163.898C583.635-175.545,575.18-184,564.448-184z M428.582,7.28
	c-5.398,0-9.756-4.357-9.756-9.756c0-5.398,4.357-9.756,9.756-9.756c5.397,0,9.756,4.358,9.756,9.756
	C438.338,2.922,433.979,7.28,428.582,7.28z M573.879-23.354H285.756v-141.46c0-5.398,4.683-9.431,10.081-9.431h268.611
	c5.398,0,9.431,4.032,9.431,9.431V-23.354z"/>
<polygon fill="#333333" points="471.117,62.498 437.947,62.498 437.947,28.678 418.436,28.678 418.436,62.498 385.916,62.498 
	385.916,72.254 471.117,72.254 "/>
<path fill="#333333" d="M558.335-107.319l-64.194,10.146l-27.901,58.47c8.13,3.642,17.17,5.593,26.666,5.593
	c36.422,0,65.949-29.528,65.949-65.95C558.854-101.855,558.66-104.652,558.335-107.319z M536.611-55.353
	c-11.642,11.642-27.187,18.081-43.706,18.081c-7.284,0-14.309-1.236-21.072-3.707l25.104-52.487l57.625-9.105
	c0.064,1.171,0.064,2.342,0.064,3.447C554.692-82.604,548.254-67.06,536.611-55.353z"/>
<path fill="#333333" d="M544.416-139.838c-11.707-14.894-29.072-24.585-49.885-25.17v61.853L544.416-139.838z"/>
<path fill="#388A45" d="M500.84-102.441l56.845-8.976c-1.757-9.17-5.398-17.69-10.472-25.105L500.84-102.441z"/>
<path fill="#388A45" d="M426.956-99.059c0,25.43,14.373,47.543,35.511,58.535l28.162-59.055v-65.43
	C455.508-163.838,426.956-134.766,426.956-99.059z M434.63-78.507l31.675,20.487l-2.472,5.203l-24.976-16.194
	C437.167-72.068,435.736-75.255,434.63-78.507z M432.81-84.62c-0.716-2.992-1.236-6.114-1.496-9.236l39.608,26.016l-2.861,5.984
	L432.81-84.62z M431.118-98.929c0-0.065,0-0.13,0-0.13c0-2.537,0.13-5.008,0.455-7.479L475.8-77.986l-3.057,6.374L431.118-98.929z
	 M432.289-111.026c0.455-2.341,1.04-4.618,1.756-6.829l46.438,30.113l-2.861,5.983L432.289-111.026z M435.411-121.888
	c0.845-2.146,1.82-4.292,2.991-6.374l46.828,30.503l-2.991,6.309L435.411-121.888z M440.224-131.839
	c1.301-2.081,2.602-4.097,4.228-6.048l41.625,27.056v8.976L440.224-131.839z M486.076-129.822l-29.593-19.317
	c1.951-1.431,3.837-2.731,5.983-3.902l23.675,15.415v7.805H486.076z M466.824-155.253c2.927-1.366,5.854-2.471,8.976-3.317
	l10.342,6.764v9.235L466.824-155.253z M486.076-156.749l-4.813-3.122c1.626-0.26,3.512-0.52,4.813-0.715V-156.749z M453.036-146.473
	l33.04,21.528v9.235l-38.764-25.365c0.325-0.325,0.65-0.715,0.976-1.041C449.784-143.676,451.346-145.106,453.036-146.473z
	 M444.776-60.296l17.235,11.187l-1.301,2.731C454.532-50.084,449.199-54.833,444.776-60.296z"/>
<rect x="305.268" y="-88.393" fill="#388A45" width="19.512" height="55.283"/>
<rect x="334.535" y="-115.709" fill="#388A45" width="19.512" height="82.6"/>
<rect x="363.803" y="-79.287" fill="#388A45" width="19.512" height="46.178"/>
<rect x="393.07" y="-148.229" fill="#388A45" width="19.512" height="115.119"/>
</svg>
